HIERARCHY
ROOT Pelvis
{
	OFFSET 0.000000 0.000000 0.000000
	CHANNELS 6 Xposition Yposition Zposition Xrotation Yrotation Zrotation
	JOINT LeftUpLeg_virtual
	{
		OFFSET 0.000000 0.000000 0.000000
		CHANNELS 3 Xrotation Yrotation Zrotation
		JOINT LeftUpLeg
		{
			OFFSET 18.735201 -5.666702 -4.541200
			CHANNELS 3 Xrotation Yrotation Zrotation
			JOINT LeftLeg
			{
				OFFSET -0.021200 -31.938179 0.493100
				CHANNELS 3 Xrotation Yrotation Zrotation
				JOINT LeftFoot
				{
					OFFSET 0.021200 -31.938179 -4.336299
					CHANNELS 3 Xrotation Yrotation Zrotation
					JOINT LeftToeBase
					{
						OFFSET 0.943001 -26.722000 15.023500
						CHANNELS 3 Xrotation Yrotation Zrotation
						End Site
						{
							OFFSET 0 0 0
						}
					}
				}
			}
		}
	}
	JOINT RightUpLeg_virtual
	{
		OFFSET 0.000000 0.000000 0.000000
		CHANNELS 3 Xrotation Yrotation Zrotation
		JOINT RightUpLeg
		{
			OFFSET -18.735201 -5.666702 -4.541200
			CHANNELS 3 Xrotation Yrotation Zrotation
			JOINT RightLeg
			{
				OFFSET 0.018946 -31.938133 0.493100
				CHANNELS 3 Xrotation Yrotation Zrotation
				JOINT RightFoot
				{
					OFFSET -0.018946 -31.938126 -4.336299
					CHANNELS 3 Xrotation Yrotation Zrotation
					JOINT RightToeBase
					{
						OFFSET -0.943001 -26.722004 15.023500
						CHANNELS 3 Xrotation Yrotation Zrotation
						End Site
						{
							OFFSET 0 0 0
						}
					}
				}
			}
		}
	}
	JOINT Hips_virtual
	{
		OFFSET 0.000000 0.000000 0.000000
		CHANNELS 3 Xrotation Yrotation Zrotation
		JOINT Hips
		{
			OFFSET -0.000000 -0.000000 -0.000000
			CHANNELS 3 Xrotation Yrotation Zrotation
			JOINT Spine
			{
				OFFSET 0.000000 10.199997 -0.299500
				CHANNELS 3 Xrotation Yrotation Zrotation
				JOINT Spine1
				{
					OFFSET 0.000000 11.900002 -1.516600
					CHANNELS 3 Xrotation Yrotation Zrotation
					JOINT Spine2
					{
						OFFSET 0.000000 13.600006 -2.842500
						CHANNELS 3 Xrotation Yrotation Zrotation
						JOINT Neck_virtual
						{
							OFFSET 0.000000 0.000000 0.000000
							CHANNELS 3 Xrotation Yrotation Zrotation
							JOINT Neck
							{
								OFFSET 0.000000 9.624100 -2.890100
								CHANNELS 3 Xrotation Yrotation Zrotation
								JOINT Head
								{
									OFFSET 0.000000 14.068802 -1.351900
									CHANNELS 3 Xrotation Yrotation Zrotation
									End Site
									{
										OFFSET 0 0 0
									}
								}
							}
						}
						JOINT LeftShoulder_virtual
						{
							OFFSET 0.000000 0.000000 0.000000
							CHANNELS 3 Xrotation Yrotation Zrotation
							JOINT LeftShoulder
							{
								OFFSET 15.263000 10.923401 -0.547700
								CHANNELS 3 Xrotation Yrotation Zrotation
								JOINT LeftArm
								{
									OFFSET 25.438599 -2.830597 -13.032500
									CHANNELS 3 Xrotation Yrotation Zrotation
									JOINT LeftForeArm
									{
										OFFSET 29.960503 0.000000 0.000000
										CHANNELS 3 Xrotation Yrotation Zrotation
										JOINT LeftHand
										{
											OFFSET 27.849251 0.000000 0.000000
											CHANNELS 3 Xrotation Yrotation Zrotation
											End Site
											{
												OFFSET 0 0 0
											}
										}
									}
								}
							}
						}
						JOINT RightShoulder_virtual
						{
							OFFSET 0.000000 0.000000 0.000000
							CHANNELS 3 Xrotation Yrotation Zrotation
							JOINT RightShoulder
							{
								OFFSET -15.263000 10.923401 -0.547700
								CHANNELS 3 Xrotation Yrotation Zrotation
								JOINT RightArm
								{
									OFFSET -25.438599 -2.830597 -13.032500
									CHANNELS 3 Xrotation Yrotation Zrotation
									JOINT RightForeArm
									{
										OFFSET -29.960503 0.000000 0.000000
										CHANNELS 3 Xrotation Yrotation Zrotation
										JOINT RightHand
										{
											OFFSET -27.849251 0.000000 0.000000
											CHANNELS 3 Xrotation Yrotation Zrotation
											End Site
											{
												OFFSET 0 0 0
											}
										}
									}
								}
							}
						}
					}
				}
			}
		}
	}
}
MOTION
Frames: 4
Frame Time: 0.03333333
-2.502603 80.375252 2.717978 0.000000 0.000000 0.000000 -5.066612 -42.370314 0.336365 -36.917063 3.270017 21.340574 62.505875 -8.150104 4.188497 -22.902473 -6.714141 -18.587424 0.000000 0.000000 0.000000 -5.066612 -42.370314 0.336365 -21.072110 -9.197359 -32.290573 63.676576 -7.115154 -7.523104 -31.485219 -9.751354 26.477527 0.000000 0.000000 0.000000 -5.066612 -42.370314 0.336365 0.000000 0.000001 0.000000 9.462086 7.035265 -1.694401 2.187715 0.989894 -0.914786 0.000000 0.000000 0.000000 2.202831 0.982770 -0.893560 2.650043 3.452591 -0.064172 0.000000 0.000000 0.000000 2.202831 0.982770 -0.893560 1.117177 3.546352 -8.633310 -53.487013 4.935509 -51.502983 -179.999349 -73.641952 -179.999363 0.000000 0.000000 0.000000 2.202831 0.982770 -0.893560 3.036125 13.027199 -5.371405 -48.713722 27.172834 83.457071 -179.999445 74.011725 179.999459 0.000000 0.000000 0.000000 
-2.502391 80.392616 2.741995 0.000000 0.000000 0.000000 -4.995946 -42.359293 0.289217 -36.961849 3.227741 21.555445 62.506210 -7.985832 4.007288 -22.950443 -6.904428 -18.584798 0.000000 0.000000 0.000000 -4.995946 -42.359293 0.289217 -21.160925 -9.438533 -32.334495 63.554924 -6.874664 -7.491898 -31.458461 -9.706497 26.312344 0.000000 0.000000 0.000000 -4.995946 -42.359293 0.289217 0.000000 0.000000 0.000000 9.444652 7.080975 -1.710766 2.175732 1.007919 -0.914785 0.000000 0.000000 0.000000 2.190586 1.000769 -0.893559 2.633548 3.458740 -0.077762 0.000000 0.000000 0.000000 2.190586 1.000769 -0.893559 1.060109 3.401049 -8.204986 -53.252622 4.575402 -50.958921 -179.999896 -73.547696 -179.999896 0.000000 0.000000 0.000000 2.190586 1.000769 -0.893559 2.992700 12.851424 -5.316450 -49.165658 27.692730 83.232576 179.999827 74.121957 -179.999827 0.000000 0.000000 0.000000 
-2.510795 80.422440 2.780405 0.000000 0.000000 0.000000 -4.921077 -42.380026 0.247284 -37.002755 3.226904 21.782390 62.500582 -8.078398 3.829509 -22.966489 -6.971970 -18.470647 0.000000 0.000000 0.000000 -4.921077 -42.380026 0.247284 -21.198100 -9.598198 -32.378833 63.414133 -6.650640 -7.366733 -31.427548 -9.648247 26.104261 0.000000 0.000000 0.000000 -4.921077 -42.380026 0.247284 0.000000 0.000000 0.000000 9.419279 7.097655 -1.732404 2.160458 1.014517 -0.917778 0.000000 0.000000 0.000000 2.175226 1.007283 -0.896828 2.610275 3.469266 -0.093782 0.000000 0.000000 0.000000 2.175226 1.007283 -0.896828 1.001849 3.254860 -7.754998 -53.008948 4.373915 -50.549287 -179.999896 -73.314397 -179.999896 0.000000 0.000000 0.000000 2.175226 1.007283 -0.896828 2.949119 12.677378 -5.252450 -49.612694 28.281049 83.025867 -179.999786 74.211344 179.999773 0.000000 0.000000 0.000000 
-2.522060 80.463264 2.836332 0.000000 0.000000 0.000000 -4.839195 -42.449762 0.217954 -37.001269 3.289898 22.010141 62.478527 -8.281504 3.649543 -22.999846 -6.921418 -18.290132 0.000000 0.000000 0.000000 -4.839195 -42.449762 0.217954 -21.194559 -9.653848 -32.427877 63.259491 -6.337435 -7.150207 -31.378531 -9.662809 25.831668 0.000000 0.000000 0.000000 -4.839195 -42.449762 0.217954 0.000000 -0.000001 0.000000 9.384243 7.090092 -1.762519 2.140906 1.011708 -0.925597 0.000000 0.000000 0.000000 2.155735 1.004236 -0.904948 2.579335 3.484887 -0.111582 0.000000 0.000000 0.000000 2.155735 1.004236 -0.904948 0.942413 3.109347 -7.280550 -52.751812 4.313176 -50.243411 -179.999527 -72.961174 -179.999541 0.000000 0.000000 0.000000 2.155735 1.004236 -0.904948 2.906329 12.509033 -5.180292 -50.050646 28.941390 82.820818 -179.998885 74.285725 179.998899 0.000000 0.000000 0.000000 
